<svg width="160" height="31" viewBox="0 0 160 31" fill="none" xmlns="http://www.w3.org/2000/svg">
<g clip-path="url(#clip0_1_2)">
<path d="M7.55742 24.1645C9.67097 24.1645 11.4219 23.6995 12.809 22.7695C14.1961 21.8382 14.8903 20.4845 14.8903 18.7085C14.7832 16.3125 13.0013 14.5157 9.54323 13.3184L7.68516 12.5472C7.28 12.4181 6.99097 12.2915 6.82064 12.1623C6.74194 12.1091 6.67748 12.0373 6.63294 11.9533C6.5884 11.8693 6.56512 11.7756 6.56516 11.6805C6.56516 11.1458 6.91742 10.8797 7.62194 10.8797C8.49677 10.8797 9.1471 11.3279 9.57419 12.2269L14.3458 10.8784C13.1935 8.01092 10.9729 6.57846 7.68516 6.57846C5.72129 6.57846 4.08774 7.09254 2.78581 8.11942C1.48387 9.145 0.832258 10.4832 0.832258 12.1288C0.832258 12.6428 0.907097 13.1182 1.05677 13.5573C1.20645 13.9965 1.43097 14.3814 1.72903 14.7121C2.02839 15.044 2.31613 15.3321 2.59355 15.5788C2.87097 15.8242 3.22323 16.0554 3.65161 16.2685C4.07742 16.483 4.40258 16.638 4.6271 16.7335C4.85161 16.8304 5.15613 16.9428 5.53935 17.0707L6.08387 17.2644L8.00645 17.9697C8.47484 18.1415 8.78065 18.2848 8.91871 18.4024C8.98617 18.4591 9.03983 18.5304 9.0756 18.611C9.11138 18.6916 9.12833 18.7793 9.12516 18.8674C9.12516 19.4241 8.60387 19.7031 7.55742 19.7031C6.02064 19.7031 5.10194 19.0185 4.80387 17.6493L0 18.7408C0.597419 22.3575 3.11742 24.1645 7.55742 24.1645ZM22.5716 24.1645C24.6852 24.1645 26.2426 23.3507 27.2464 21.7258V23.8119H33.8426V6.93108H27.2464V16.1742C27.2464 18.0782 26.5948 19.0288 25.2929 19.0288C23.969 19.0288 23.3071 18.0782 23.3071 16.1742V6.93108H16.711V16.8162C16.711 21.7155 18.6645 24.1645 22.5716 24.1645ZM43.3497 23.8119V14.57C43.3497 12.6648 44 11.7128 45.3019 11.7128C46.6258 11.7128 47.289 12.6648 47.289 14.57V23.8119H53.8839V13.928C53.8839 9.02875 51.9316 6.57846 48.0245 6.57846C45.911 6.57846 44.3523 7.39221 43.3497 9.01712V6.93108H36.7523V23.8119H43.3497ZM63.1987 23.8119V14.57C63.1987 12.6648 63.849 11.7128 65.1523 11.7128C66.4748 11.7128 67.1368 12.6648 67.1368 14.57V23.8119H73.7342V13.928C73.7342 9.02875 71.7806 6.57846 67.8735 6.57846C65.76 6.57846 64.2013 7.39221 63.1987 9.01712V6.93108H56.6013V23.8119H63.1987ZM83.8168 31L94.5123 6.93108H87.6258L84.3587 15.5646L81.4452 6.93108H74.24L81.2529 22.1753L77.3471 31H83.8168ZM101.455 24.1645C103.569 24.1645 105.32 23.6995 106.707 22.7695C108.095 21.8382 108.79 20.4845 108.79 18.7085C108.683 16.3125 106.899 14.5157 103.441 13.3184L101.583 12.5472C101.178 12.4181 100.89 12.2915 100.719 12.1623C100.64 12.1091 100.576 12.0373 100.531 11.9533C100.486 11.8693 100.463 11.7756 100.463 11.6805C100.463 11.1458 100.815 10.8797 101.52 10.8797C102.395 10.8797 103.046 11.3279 103.474 12.2269L108.245 10.8784C107.092 8.01092 104.872 6.57846 101.585 6.57846C99.6206 6.57846 97.9871 7.09254 96.6852 8.11942C95.3819 9.14629 94.7316 10.4832 94.7316 12.13C94.7316 12.6441 94.8064 13.1195 94.9548 13.5586C95.1045 13.9978 95.329 14.3827 95.6284 14.7134C95.9264 15.0453 96.2155 15.3334 96.4929 15.5801C96.7703 15.8255 97.1226 16.0567 97.5497 16.2698C97.9755 16.4842 98.3019 16.6392 98.5265 16.7348C98.7497 16.8317 99.0555 16.9441 99.4387 17.072L99.9832 17.2657L101.905 17.971C102.374 18.1427 102.679 18.2861 102.817 18.4037C102.884 18.4602 102.938 18.5315 102.974 18.6121C103.01 18.6927 103.028 18.7804 103.025 18.8687C103.025 19.4254 102.502 19.7044 101.455 19.7044C99.92 19.7044 99.0013 19.0198 98.7019 17.6506L93.8981 18.7408C94.4968 22.3575 97.0155 24.1645 101.455 24.1645ZM114.101 5.90421C115.275 5.90421 116.182 5.6265 116.823 5.06979C117.462 4.51437 117.783 3.80783 117.783 2.95146C117.783 2.07571 117.474 1.36271 116.854 0.818917C116.235 0.27125 115.317 0 114.101 0C112.884 0 111.965 0.272542 111.346 0.818917C110.726 1.364 110.417 2.07571 110.417 2.95275C110.417 3.80783 110.738 4.51438 111.378 5.07108C112.019 5.6265 112.926 5.90421 114.101 5.90421ZM117.399 23.8119V6.93108H110.8V23.8119H117.399ZM127.386 24.1645C129.627 24.1645 131.227 23.3507 132.188 21.7258V23.8119H138.785V0.609667H132.188V9.04942C131.227 7.40254 129.627 6.57846 127.385 6.57846C125.123 6.57846 123.237 7.40771 121.733 9.06621C120.228 10.7234 119.475 12.825 119.475 15.3721C119.475 17.9167 120.228 20.0195 121.733 21.678C123.237 23.3353 125.124 24.1645 127.386 24.1645ZM129.179 19.127C128.239 19.127 127.486 18.7731 126.921 18.0678C126.355 17.3613 126.072 16.4623 126.072 15.3721C126.072 14.2807 126.35 13.383 126.905 12.6764C127.481 11.9699 128.239 11.6173 129.178 11.6173C130.117 11.6173 130.87 11.9699 131.436 12.6764C132.001 13.3817 132.284 14.2807 132.284 15.3721C132.284 16.4623 132.001 17.3613 131.436 18.0678C130.87 18.7731 130.119 19.127 129.179 19.127ZM150.725 24.1645C154.076 24.1645 156.692 23.1906 158.57 21.2453L155.848 17.586C154.503 18.6775 152.987 19.2226 151.301 19.2226C150.021 19.2226 148.979 18.9332 148.178 18.3572C147.378 17.7785 146.978 17.2218 146.978 16.687H159.37C159.477 16.3021 159.53 15.7997 159.53 15.1797C159.53 12.5266 158.661 10.4302 156.921 8.88925C155.181 7.34829 152.956 6.57846 150.244 6.57846C147.341 6.57846 145.046 7.44517 143.36 9.17858C141.674 10.9107 140.83 12.9967 140.83 15.4354C140.83 17.9387 141.72 20.0195 143.503 21.678C145.286 23.3353 147.693 24.1645 150.725 24.1645ZM153.574 13.6387H146.978C147.021 12.8469 147.363 12.2437 148.003 11.8252C148.643 11.408 149.401 11.2 150.276 11.2C151.151 11.2 151.91 11.4132 152.55 11.842C153.191 12.2695 153.532 12.8689 153.574 13.6387Z" fill="#2B7362"/>
</g>
<defs>
<clipPath id="clip0_1_2">
<rect width="160" height="31" fill="white"/>
</clipPath>
</defs>
</svg>
